<?xml version="1.0" ?><svg id="Solid" viewBox="0 0 64 64" xmlns="http://www.w3.org/2000/svg"><path d="M22,20h.484A10.861,10.861,0,0,0,32,26a10.861,10.861,0,0,0,9.516-6H42a4,4,0,0,0,4-4V12a2,2,0,0,0-1.1-1.775l1.088-7.073-1.976-.3L42.911,10h-.55A11.106,11.106,0,0,0,32,2a11.106,11.106,0,0,0-10.361,8h-.551l-1.1-7.152-1.976.3L19.1,10.225A2,2,0,0,0,18,12v4A4,4,0,0,0,22,20Zm1.757-10H40.243A10.882,10.882,0,0,1,41,14a11.065,11.065,0,0,1-.172,1.933L36,18l-4-4-4,4-4.828-2.067A11.065,11.065,0,0,1,23,14,10.882,10.882,0,0,1,23.757,10Z"/><ellipse cx="10" cy="39" rx="4" ry="5"/><path d="M27,26.92v2.61L32,31.8l5-2.273V26.92a12.114,12.114,0,0,1-10,0Z"/><path d="M48,39c0-3.86,2.691-7,6-7V24L32,34,10,24v8c3.309,0,6,3.14,6,7s-2.691,7-6,7v6L32,62,54,52V46C50.691,46,48,42.86,48,39ZM26.553,50.9l-8-4,.894-1.79,8,4Zm0-6-8-4,.894-1.79,8,4Zm0-6-8-4,.894-1.79,8,4Zm10.894,12-.894-1.79,8-4,.894,1.79Zm0-6-.894-1.79,8-4,.894,1.79Zm0-6-.894-1.79,8-4,.894,1.79Z"/><ellipse cx="54" cy="39" rx="4" ry="5"/></svg>